<?xml version="1.0" encoding="utf-8" ?>
<svg xmlns="http://www.w3.org/2000/svg" xmlns:xlink="http://www.w3.org/1999/xlink" width="1025" height="1023">
	<defs>
		<linearGradient id="gradient_0" gradientUnits="userSpaceOnUse" x1="264.50507" y1="195.03786" x2="263.66217" y2="453.94464">
			<stop offset="0" stop-color="#045D9C"/>
			<stop offset="1" stop-color="#01E8EC"/>
		</linearGradient>
	</defs>
	<path fill="url(#gradient_0)" transform="scale(1.94867 1.94857)" d="M140.719 69.7111L212.476 39.9616C217.439 37.8754 222.328 35.6096 227.306 33.5623C231.648 31.7769 236.071 30.2134 240.388 28.3607C246.599 25.6952 252.723 22.6424 259.07 20.3203C260.881 19.6579 263.456 18.6641 265.358 19.2204C272.872 21.4174 280.132 25.0899 287.314 28.1984C292.399 30.3992 297.592 32.3006 302.708 34.4171C306.773 36.0986 310.746 37.9989 314.798 39.7115L360.721 58.7084C367.464 61.4979 374.307 64.1428 380.964 67.1285C383.577 67.9323 386.144 69.1248 388.68 70.1469L405.75 77.1897C412.608 80.004 419.456 82.7897 426.272 85.7123C429.487 87.0912 433.167 88.3585 436.086 90.2905C437.124 90.9776 437.935 92.6542 438.511 93.7528C442.158 100.711 444.841 108.103 447.708 115.397C450.029 121.303 452.531 127.145 454.961 133.008C462.365 150.4 469.55 167.885 476.515 185.458C478.145 189.57 479.964 193.634 481.507 197.775C486.598 209.394 491.283 221.189 496.243 232.863C498.672 238.578 508.064 259.024 508.632 263.544C508.748 264.473 507.954 266.11 507.611 266.98C506.3 270.311 504.781 273.556 503.402 276.859L489.143 310.582L460.559 379.495C456.178 390.103 451.859 400.737 447.603 411.396C444.798 418.504 442.374 426.333 438.513 432.935C436.335 436.66 433.432 438.321 429.569 439.995C421.849 443.34 414.036 446.499 406.277 449.753C401.653 451.692 396.881 454.058 392.107 455.556C388.912 457.447 384.833 458.715 381.384 460.148L359.002 469.467C339.1 478.013 319.061 486.238 298.894 494.138C294.805 495.801 290.73 497.497 286.669 499.228C284.602 500.098 282.368 501.244 280.195 501.796L279.858 501.416C278.243 502.047 276.359 503.195 274.702 503.551C271.677 504.201 260.817 503.616 257.106 503.563C256.726 503.558 253.61 503.496 253.573 503.559L253.297 503.284L253.293 503.48L252.727 503.434L252.716 503.743C250.724 503.152 248.779 502.156 246.865 501.331L235.529 496.466L197.236 480.562L146.471 459.442C140.892 457.088 132.722 454.459 127.711 451.693C123.659 450.49 119.602 448.363 115.675 446.75C109.999 444.418 104.222 442.349 98.5471 440.028C95.6718 438.852 92.0559 437.191 90.3551 434.474C87.3589 429.689 85.6062 423.511 83.5115 418.239C79.8714 409.154 76.1728 400.093 72.4158 391.056L24.1417 275.611C22.6212 271.998 20.1403 267.12 20.2769 263.151C20.4632 257.74 30.0188 237.433 32.7265 230.968C36.8174 221.23 40.857 211.47 44.8453 201.689C49.29 191.352 53.3996 180.855 57.6583 170.439L76.6995 124.414C80.7248 114.745 84.3373 104.68 88.8853 95.2595C89.693 93.5863 90.8086 91.3425 92.2675 90.171C95.4746 87.5956 110.534 82.0557 115.405 80.0997C122.398 77.308 129.354 74.4224 136.271 71.4437L137.928 70.809L140.719 69.7111Z"/>
	<defs>
		<linearGradient id="gradient_1" gradientUnits="userSpaceOnUse" x1="262.72729" y1="67.795258" x2="262.74353" y2="202.92374">
			<stop offset="0" stop-color="#001B79"/>
			<stop offset="1" stop-color="#03629F"/>
		</linearGradient>
	</defs>
	<path fill="url(#gradient_1)" transform="scale(1.94867 1.94857)" d="M140.719 69.7111L212.476 39.9616C217.439 37.8754 222.328 35.6096 227.306 33.5623C231.648 31.7769 236.071 30.2134 240.388 28.3607C246.599 25.6952 252.723 22.6424 259.07 20.3203C260.881 19.6579 263.456 18.6641 265.358 19.2204C272.872 21.4174 280.132 25.0899 287.314 28.1984C292.399 30.3992 297.592 32.3006 302.708 34.4171C306.773 36.0986 310.746 37.9989 314.798 39.7115L360.721 58.7084C367.464 61.4979 374.307 64.1428 380.964 67.1285C383.577 67.9323 386.144 69.1248 388.68 70.1469L405.75 77.1897C412.608 80.004 419.456 82.7897 426.272 85.7123C429.487 87.0912 433.167 88.3585 436.086 90.2905C437.124 90.9776 437.935 92.6542 438.511 93.7528C442.158 100.711 444.841 108.103 447.708 115.397C450.029 121.303 452.531 127.145 454.961 133.008C462.365 150.4 469.55 167.885 476.515 185.458C478.145 189.57 479.964 193.634 481.507 197.775L480.381 197.672C479.782 198.253 479.98 198.842 479.489 199.414C478.667 200.373 475.04 201.167 473.747 201.391C471.642 201.755 469.287 201.521 467.144 201.549C461.891 201.635 456.636 201.663 451.381 201.633C435.619 201.639 419.826 201.845 404.067 201.614L389.699 201.365C383.519 201.283 377.811 201.367 371.728 200.016L371.256 200.673L370.983 200.45L370.914 200.615C370.55 200.531 370.022 200.302 369.687 200.46C369.285 201.319 369.598 202.614 368.987 203.199L368.68 203.233C368.889 190.174 369.399 171.234 359.932 161.114C350.956 151.519 334.643 151.231 322.438 150.835L322.328 168.041C329.368 168.358 337.478 168.684 343.11 173.518C348.203 177.89 349.385 184.591 349.851 190.951C349.447 191.377 349.019 192.075 348.432 192.121L348.435 191.55C347.729 192.018 347.498 192.859 347.211 193.631C346.915 194.429 346.395 195.266 345.563 195.606C343.198 196.572 319.499 196.238 315.542 196.266C286.913 196.513 258.283 196.587 229.654 196.489C223.723 196.493 217.786 196.795 211.864 196.749C202.539 196.676 193.209 196.483 183.91 195.885C182.582 195.799 181.241 195.943 179.921 195.824L179.865 195.072L179.411 194.934C179.043 195.288 179.136 195.075 179.112 195.566C179.078 196.242 178.152 195.954 177.568 196.21C178.106 188.95 178.564 178.614 184.501 173.482C190.129 168.619 198.307 168.931 205.227 167.976L205.273 150.761C192.494 150.658 178.163 150.943 168.483 160.568C158.776 170.22 159.043 186.851 158.918 199.663C157.916 198.143 158.94 195.643 158.152 194.663C157.436 195.205 157.734 196.114 157.02 196.621C156.026 197.327 155.379 197.792 154.909 198.946C152.757 200.279 143.657 200.442 140.651 200.54C131.063 200.852 121.378 200.334 111.771 200.337C98.2541 200.341 84.6071 200.767 71.1063 200.301C65.3308 200.101 59.5583 199.476 53.7805 199.191C52.6819 199.137 50.8548 198.751 49.8414 198.935C49.2965 199.034 48.7527 199.988 48.4571 200.413C47.6545 200.631 46.8355 200.639 46.2252 201.258C46.0676 201.889 46.0556 202.112 45.6356 202.626L45.156 202.695C45.0474 202.361 44.9357 202.029 44.8453 201.689C49.29 191.352 53.3996 180.855 57.6583 170.439L76.6995 124.414C80.7248 114.745 84.3373 104.68 88.8853 95.2595C89.693 93.5863 90.8086 91.3425 92.2675 90.171C95.4746 87.5956 110.534 82.0557 115.405 80.0997C122.398 77.308 129.354 74.4224 136.271 71.4437L137.928 70.809L140.719 69.7111Z"/>
	<path fill="#001271" transform="scale(1.94867 1.94857)" d="M140.719 69.7111L212.476 39.9616C217.439 37.8754 222.328 35.6096 227.306 33.5623C231.648 31.7769 236.071 30.2134 240.388 28.3607C246.599 25.6952 252.723 22.6424 259.07 20.3203C260.881 19.6579 263.456 18.6641 265.358 19.2204C272.872 21.4174 280.132 25.0899 287.314 28.1984C292.399 30.3992 297.592 32.3006 302.708 34.4171C306.773 36.0986 310.746 37.9989 314.798 39.7115L360.721 58.7084C367.464 61.4979 374.307 64.1428 380.964 67.1285C381.044 67.3986 381.156 67.6758 381.228 67.945C381.248 68.0228 381.245 68.1053 381.263 68.1838C381.362 68.6297 381.636 68.9211 381.862 69.3088C382.03 69.5976 382.16 69.9481 382.292 70.252C379.828 70.3464 378.257 69.242 376.013 68.9834C374.982 68.8645 373.53 69.326 372.632 68.8323L372.258 68.2164C368.607 67.9911 365.005 70.2368 361.237 70.3033C358.114 70.3584 355.008 70.0363 351.895 70.0386L299.708 70.5032L195.862 70.2057C190.626 70.1848 185.359 69.9314 180.14 69.8277C178.672 69.7986 177.203 70.041 175.726 69.9625C174.158 69.8793 172.599 69.5158 171.043 69.3173C168.271 68.9634 165.375 68.8773 162.585 68.9985C160.99 69.0678 158.688 67.8607 156.793 67.7629C153.553 67.5956 146.806 69.8485 143.453 70.751C142.3 71.0612 141.965 71.2501 140.972 70.497L140.719 69.7111Z"/>
	<!-- <path fill="#001271" transform="scale(1.94867 1.94857)" d="M137.928 70.809L138.507 71.4858L138.423 72.2088C137.862 72.5166 137.758 72.4487 137.112 72.3654C136.834 72.0561 136.553 71.7488 136.271 71.4437L137.928 70.809Z"/> -->
	<path fill="#FEFEFE" transform="scale(1.94867 1.94857)" d="M158.918 199.663C159.043 186.851 158.776 170.22 168.483 160.568C178.163 150.943 192.494 150.658 205.273 150.761L205.227 167.976C198.307 168.931 190.129 168.619 184.501 173.482C178.564 178.614 178.106 188.95 177.568 196.21C178.152 195.954 179.078 196.242 179.112 195.566C179.136 195.075 179.043 195.288 179.411 194.934L179.865 195.072L179.921 195.824C181.241 195.943 182.582 195.799 183.91 195.885C193.209 196.483 202.539 196.676 211.864 196.749C217.786 196.795 223.723 196.493 229.654 196.489C258.283 196.587 286.913 196.513 315.542 196.266C319.499 196.238 343.198 196.572 345.563 195.606C346.395 195.266 346.915 194.429 347.211 193.631C347.498 192.859 347.729 192.018 348.435 191.55L348.432 192.121C349.019 192.075 349.447 191.377 349.851 190.951C349.385 184.591 348.203 177.89 343.11 173.518C337.478 168.684 329.368 168.358 322.328 168.041L322.438 150.835C334.643 151.231 350.956 151.519 359.932 161.114C369.399 171.234 368.889 190.174 368.68 203.233C368.548 213.978 368.089 228.625 376.133 236.855C381.843 242.697 390.391 244.381 398.032 246.185C398.226 257.787 397.996 269.332 397.986 280.926C391.014 281.025 382.623 281.736 377.501 287.088C370.352 294.556 369.549 307.711 369.359 317.516C369.102 332.533 370.668 355.957 359.23 367.054C348.197 377.757 325.171 375.984 310.523 376.045L306.701 376.012C306.808 369.422 306.559 362.842 306.499 356.255L306.434 327.457C306.456 318.148 306.535 308.838 306.671 299.53C306.784 288.608 307.786 276.28 304.493 265.742C301.21 255.234 292.891 246.267 283.214 241.228C272.868 235.841 260.795 235.241 249.745 238.801C239.252 242.182 230.727 250.007 225.742 259.715C219.589 272.636 220.855 287.232 221.06 301.129L221.207 323.845C220.917 328.745 221.223 333.821 221.188 338.74C221.076 351.215 221.051 363.691 221.112 376.166C213.473 376.337 205.564 376.305 197.928 375.999C189.564 375.663 180.456 374.758 173.114 370.407C156.901 360.798 159.012 333.721 158.341 317.492C158.111 311.938 157.495 306.288 156.32 300.855C155.286 296.073 153.936 290.838 150.493 287.169C145.507 281.857 136.547 281.194 129.733 280.968C129.731 269.388 129.635 257.808 129.446 246.23C137.073 245.343 145.724 242.738 151.201 237.071C159.7 228.276 159.067 211.114 158.918 199.663Z"/>
	<defs>
		<linearGradient id="gradient_2" gradientUnits="userSpaceOnUse" x1="263.62448" y1="191.78014" x2="263.96021" y2="357.91995">
			<stop offset="0" stop-color="#025B9D"/>
			<stop offset="1" stop-color="#0AB1C9"/>
		</linearGradient>
	</defs>
	<path fill="url(#gradient_2)" transform="scale(1.94867 1.94857)" d="M177.568 196.21C178.152 195.954 179.078 196.242 179.112 195.566C179.136 195.075 179.043 195.288 179.411 194.934L179.865 195.072L179.921 195.824C181.241 195.943 182.582 195.799 183.91 195.885C193.209 196.483 202.539 196.676 211.864 196.749C217.786 196.795 223.723 196.493 229.654 196.489C258.283 196.587 286.913 196.513 315.542 196.266C319.499 196.238 343.198 196.572 345.563 195.606C346.395 195.266 346.915 194.429 347.211 193.631C347.498 192.859 347.729 192.018 348.435 191.55L348.432 192.121C349.019 192.075 349.447 191.377 349.851 190.951C352.031 212.484 346.115 238.814 365.499 254.554C370.661 258.746 376.968 261.178 382.687 264.485C371.944 267.581 362.719 273.263 357.217 283.301C345.981 303.802 355.559 336.209 345.383 350.019C342.584 353.817 338.559 355.761 334.137 357.074C331.324 357.909 328.418 358.451 325.519 358.886C325.496 356.163 325.104 352.811 325.59 350.154C326.009 350.054 326.277 350.035 326.718 350.07C327.292 350.114 327.009 350.205 327.472 349.879C327.96 347.249 327.796 344.22 327.72 341.549C327.291 342.542 327.157 343.491 327.003 344.552L326.477 344.548C325.121 340.897 326.002 320.425 325.969 314.665L325.712 314.736C325.58 305.657 325.74 296.579 325.561 287.498C325.151 266.629 322.443 250.498 306.822 235.229C294.724 223.406 279.637 217.637 262.743 217.948C245.833 218.258 230.964 224.996 219.316 237.232C201.551 255.895 201.291 276.716 201.972 300.86C202.518 320.216 202.666 339.417 202.205 358.781C195.703 357.999 187.298 356.569 182.89 351.151C182.159 350.252 181.463 349.187 181.121 348.072C176.827 341.288 177.465 320.393 177.174 311.666C176.256 304.982 176.094 299.763 174.239 293.039C172.932 290.274 172.12 287.31 170.846 284.535C165.673 273.269 156.005 268.151 144.873 264.048C151.37 261.525 158.482 258.4 163.569 253.557C166.639 250.633 169.377 247.218 171.279 243.416C177.945 230.09 177.223 210.913 177.568 196.21Z"/>
	<!-- <path fill="#032D37" transform="scale(1.94867 1.94857)" d="M174.239 293.039C174.645 292.962 174.943 292.783 175.315 293.024C177.48 294.426 178.881 303.281 179.228 305.766C179.473 307.524 179.852 309.73 179.709 311.482C180.013 317.857 179.912 324.257 180.293 330.621C180.576 335.348 181.39 340.049 181.507 344.783C181.534 345.864 181.613 347.086 181.121 348.072C176.827 341.288 177.465 320.393 177.174 311.666C176.256 304.982 176.094 299.763 174.239 293.039Z"/> -->
	<!-- <path fill="#085A54" transform="scale(1.94867 1.94857)" d="M174.239 293.039C174.645 292.962 174.943 292.783 175.315 293.024C177.48 294.426 178.881 303.281 179.228 305.766C179.473 307.524 179.852 309.73 179.709 311.482C178.134 309.706 179.187 301.737 177.172 299.321C176.931 299.032 176.699 299.096 176.352 299.052C177.423 302.116 177.721 308.463 177.174 311.666C176.256 304.982 176.094 299.763 174.239 293.039Z"/> -->
	<!-- <path fill="#032D37" transform="scale(1.94867 1.94857)" d="M325.969 314.665C325.887 313.422 326.262 312.801 326.844 311.737C327.145 311.185 327.425 310.62 327.718 310.063C327.786 320.561 327.999 331.055 327.72 341.549C327.291 342.542 327.157 343.491 327.003 344.552L326.477 344.548C325.121 340.897 326.002 320.425 325.969 314.665Z"/> -->
	<!-- <path fill="#19A8C3" transform="scale(1.94867 1.94857)" d="M180.271 320.869C181.568 321.743 183.22 322.39 184.612 323.147C185.652 322.691 186.111 321.493 187.184 321.136C187.76 321.856 187.76 321.913 187.805 322.813C187.432 322.969 187.005 322.872 186.655 323.009C185.927 323.295 185.496 324.153 184.643 324.35C184.259 324.438 183.878 324.066 183.532 323.902C182.46 323.394 181.858 323.813 180.797 324.176L180.309 323.632L180.363 323.819C180.21 322.874 180.283 321.83 180.271 320.869Z"/> -->
	<!-- <path fill="#116480" transform="scale(1.94867 1.94857)" d="M325.712 314.736L325.969 314.665C326.002 320.425 325.121 340.897 326.477 344.548L327.003 344.552C327.157 343.491 327.291 342.542 327.72 341.549C327.796 344.22 327.96 347.249 327.472 349.879C327.009 350.205 327.292 350.114 326.718 350.07C326.277 350.035 326.009 350.054 325.59 350.154L325.712 314.736Z"/> -->
	<path fill="#01EEF0" transform="scale(1.94867 1.94857)" d="M127.711 451.693C127.333 451.173 127.019 450.667 126.679 450.127C125.738 448.632 122.995 447.656 121.596 446.458L121.269 446.713L120.927 446.398L119.881 446.278L119.822 446.01C120.199 445.574 120.559 445.499 121.127 445.472C122.45 445.41 124.431 445.665 125.567 446.376L125.93 446.095C126.897 446.864 129.503 447.005 130.736 446.891C132.417 446.736 134.207 446.495 135.762 445.827C138.083 446.267 140.538 447.048 142.854 447.348C145.061 447.633 147.555 446.681 149.792 446.623C151.375 446.583 152.989 446.755 154.581 446.744L174.135 446.607C181.764 446.592 189.527 446.245 197.124 446.997L197.634 446.49C199.54 446.715 218.52 447.042 219.316 446.656C221.234 445.727 227.123 447.046 229.701 446.777C232.349 446.5 231.025 446.902 232.434 447.147C232.67 447.188 233.589 446.535 233.908 446.471C234.842 446.284 236.47 447.307 237.272 446.917C237.661 446.728 238.099 446.561 238.534 446.528C239.525 446.453 240.594 446.686 241.589 446.733C243.807 446.838 246.13 446.872 248.35 446.857C250.311 446.844 252.279 446.424 254.23 446.449C256.16 446.474 257.34 447.361 259.212 446.428C259.34 446.515 259.466 446.605 259.596 446.688C260.118 447.025 259.89 446.934 260.448 447.024L261.524 446.501C261.653 446.584 261.782 446.67 261.912 446.752C262.392 447.055 262.185 446.973 262.598 447.082L263.139 446.521C266.514 446.676 269.891 447.206 273.203 446.477C273.6 446.611 273.978 446.789 274.365 446.928C275.62 447.379 277.248 446.424 278.535 446.522C279.085 446.564 279.669 447 280.303 447.052L280.848 446.462C281.527 446.481 285.395 447.078 285.6 447.001C285.74 446.949 286.177 446.579 286.306 446.473C288.843 446.831 291.172 446.972 293.732 446.838C294.45 446.801 296.478 446.383 297.065 446.541C297.664 446.702 297.601 447.076 298.329 447.009C301.696 446.702 305.148 446.858 308.532 446.855L326.109 446.854C331.804 446.857 337.504 447.008 343.195 446.995C346.918 446.987 351.29 446.719 354.915 447.023L355.37 446.704L355.729 447.032L356.127 446.733L356.503 447.057L356.851 446.721L357.274 447.06L357.618 446.726C357.759 446.792 357.891 446.881 358.041 446.924C358.374 447.019 359.285 446.924 359.687 446.956C359.767 446.962 360.474 446.884 360.497 446.882C364.91 446.447 369.53 447.211 373.948 447.114C374.528 447.101 375.054 447.133 375.631 447.196C376.243 447.263 376.615 447.163 377.203 447.016C377.272 447.049 377.341 447.082 377.411 447.114C381.681 449.053 397.314 445.385 403.473 446.341C403.966 446.143 404.639 445.704 405.161 445.944C405.291 446.004 405.384 446.123 405.495 446.213C405.892 445.957 406.199 445.687 406.533 445.354L406.95 445.387C407.024 445.767 407.101 445.718 406.911 445.994C406.635 446.398 406.268 446.6 405.879 446.878C405.314 447.283 404.844 447.826 404.251 448.188C403.042 448.928 401.361 449.129 400.037 449.67C397.975 450.512 393.884 453.226 392.635 454.997C392.522 455.157 392.257 455.408 392.107 455.556C388.912 457.447 384.833 458.715 381.384 460.148L359.002 469.467C339.1 478.013 319.061 486.238 298.894 494.138C294.805 495.801 290.73 497.497 286.669 499.228C284.602 500.098 282.368 501.244 280.195 501.796L279.858 501.416C278.243 502.047 276.359 503.195 274.702 503.551C271.677 504.201 260.817 503.616 257.106 503.563C256.726 503.558 253.61 503.496 253.573 503.559L253.297 503.284L253.293 503.48L252.727 503.434L252.716 503.743C250.724 503.152 248.779 502.156 246.865 501.331L235.529 496.466L197.236 480.562L146.471 459.442C140.892 457.088 132.722 454.459 127.711 451.693Z"/>
	<defs>
		<linearGradient id="gradient_3" gradientUnits="userSpaceOnUse" x1="369.36639" y1="354.27325" x2="317.98901" y2="344.009">
			<stop offset="0" stop-color="#005670"/>
			<stop offset="1" stop-color="#1C98B9"/>
		</linearGradient>
	</defs>
	<!-- <path fill="url(#gradient_3)" transform="scale(1.94867 1.94857)" d="M369.359 317.516L369.752 316.627C370.611 316.598 371.286 317.172 372.022 317.599C371.382 332.562 373.826 359.472 361.907 370.265C359.696 372.267 357.028 373.27 354.449 374.665C352.013 375.983 349.902 377.818 347.278 378.783C340.249 381.369 323.082 381.361 315.436 380.966C314.264 380.905 312.367 380.779 311.588 379.79C310.701 378.663 311.166 377.143 310.523 376.045C325.171 375.984 348.197 377.757 359.23 367.054C370.668 355.957 369.102 332.533 369.359 317.516Z"/> -->
	<defs>
		<linearGradient id="gradient_4" gradientUnits="userSpaceOnUse" x1="216.15053" y1="304.76541" x2="232.49229" y2="302.57098">
			<stop offset="0" stop-color="#02526F"/>
			<stop offset="1" stop-color="#136F82"/>
		</linearGradient>
	</defs>
	<!-- <path fill="url(#gradient_4)" transform="scale(1.94867 1.94857)" d="M225.742 259.715C226.444 260.554 227.151 261.359 227.925 262.132C226.523 269.359 223.808 275.913 223.652 283.388C224.053 284.056 224.664 284.899 224.721 285.691C224.882 287.916 224.618 290.316 224.519 292.549C224.309 297.277 224.015 302.013 223.967 306.746C223.849 318.196 224.519 329.693 224.543 341.16C224.521 343.009 224.934 345.82 224.349 347.506L224.155 347.658C223.4 347.163 222.862 346.95 221.96 346.847C221.876 346.837 221.791 346.83 221.706 346.822C220.632 345.313 221.741 327.301 221.207 323.845L221.06 301.129C220.855 287.232 219.589 272.636 225.742 259.715Z"/> -->
	<!-- <path fill="#19A8C3" transform="scale(1.94867 1.94857)" d="M224.543 341.16C225.074 342.079 224.889 352.938 224.564 353.678C224.504 353.813 224.411 353.931 224.335 354.057C224.329 353.928 224.325 353.799 224.318 353.669C224.214 351.79 223.697 349.49 224.155 347.658L224.349 347.506C224.934 345.82 224.521 343.009 224.543 341.16Z"/> -->
	<path fill="#FEFEFE" transform="scale(1.94867 1.94857)" d="M245.19 290.013C245.455 285.239 245.311 279.816 247.176 275.35C249.631 269.471 255.692 267.397 261.119 265.155C261.253 268.761 261.245 272.38 261.287 275.989C261.354 274.847 261.245 273.216 262.118 272.335C263.203 271.239 265.051 271.442 266.47 271.473C266.438 269.475 266.362 267.465 266.495 265.469C271.621 266.728 276.288 268.4 279.148 273.198C281.333 276.865 282.011 281.236 282.393 285.419C282.509 286.687 282.445 288.056 282.699 289.299C282.941 291.265 280.108 293.163 280.928 294.8C281.485 294.79 282.001 294.731 282.55 294.642C282.654 294.983 282.681 294.839 282.562 295.082C277.755 295.759 271.548 295.223 266.607 295.184C266.845 294.47 267.147 293.866 266.876 293.118C266.438 292.7 266.05 292.59 265.464 292.513C264.351 292.367 262.289 293.002 261.43 293.753C261.088 294.052 261.121 294.78 261.061 295.221C256.173 295.43 251.136 295.104 246.259 294.739C245.968 294.657 245.592 294.642 245.406 294.382C244.68 293.369 245.1 291.202 245.19 290.013Z"/>
	<path fill="#FEFEFE" transform="scale(1.94867 1.94857)" d="M245.19 290.013C245.455 285.239 245.311 279.816 247.176 275.35C249.631 269.471 255.692 267.397 261.119 265.155C261.253 268.761 261.245 272.38 261.287 275.989L260.992 289.643C255.723 289.679 250.455 289.802 245.19 290.013Z"/>
	<path fill="#116480" transform="scale(1.94867 1.94857)" d="M261.287 275.989C261.354 274.847 261.245 273.216 262.118 272.335C263.203 271.239 265.051 271.442 266.47 271.473C266.477 277.559 266.402 283.661 266.534 289.745C271.859 289.796 277.431 290.108 282.699 289.299C282.941 291.265 280.108 293.163 280.928 294.8C281.485 294.79 282.001 294.731 282.55 294.642C282.654 294.983 282.681 294.839 282.562 295.082C277.755 295.759 271.548 295.223 266.607 295.184C266.845 294.47 267.147 293.866 266.876 293.118C266.438 292.7 266.05 292.59 265.464 292.513C264.351 292.367 262.289 293.002 261.43 293.753C261.088 294.052 261.121 294.78 261.061 295.221C256.173 295.43 251.136 295.104 246.259 294.739C245.968 294.657 245.592 294.642 245.406 294.382C244.68 293.369 245.1 291.202 245.19 290.013C250.455 289.802 255.723 289.679 260.992 289.643L261.287 275.989Z"/>
	<path fill="#FEFEFE" transform="scale(1.94867 1.94857)" d="M246.259 294.739C251.136 295.104 256.173 295.43 261.061 295.221C261.77 298.028 261.047 307.798 261.035 311.421C255.757 311.048 250.537 311.388 245.264 311.595C245.222 308.638 244.613 297.029 245.578 294.935L246.259 294.739Z"/>
	<path fill="#FEFEFE" transform="scale(1.94867 1.94857)" d="M266.607 295.184C271.548 295.223 277.755 295.759 282.562 295.082C282.378 300.474 282.362 305.87 282.515 311.264C277.201 311.124 271.886 311.118 266.572 311.247C266.67 305.919 266.277 300.49 266.607 295.184Z"/>
	<!-- <path fill="#116480" transform="scale(1.94867 1.94857)" d="M226.756 272.339C227.136 274.25 225.652 280.705 225.123 282.847C225.03 282.69 224.978 282.615 224.913 282.414C223.999 279.551 225.648 274.939 226.756 272.339Z"/> -->
	<!-- <path fill="#116480" transform="scale(1.94867 1.94857)" d="M373.533 309.909C373.947 311.023 372.758 313.768 372.374 315.002C372.266 314.73 372.186 314.451 372.143 314.161C371.931 312.719 372.727 311.054 373.533 309.909Z"/> -->
	<path fill="#0DF0FC" fill-opacity="0.98823529" transform="scale(1.94867 1.94857)" d="M252.716 503.743L252.727 503.434L253.293 503.48L253.297 503.284L253.573 503.559C253.61 503.496 256.726 503.558 257.106 503.563C260.817 503.616 271.677 504.201 274.702 503.551C276.359 503.195 278.243 502.047 279.858 501.416L280.195 501.796C276.284 504.108 269.751 506.329 265.285 506.925C261.669 507.213 258.03 506.091 254.791 504.577C254.182 504.232 253.376 504.003 252.716 503.743Z"/>
</svg>
